{"title":"Anh Hung Tran - MÃƒÂ¹i du du xanh - L'odeur de la papaye verte (1","uid":5801698,"size":1264000847,"categoryP":"video","categoryS":"movies","magnet":"?xt=urn:btih:e97398f1c0c7576f22dd488cc1568e3baa2f3c4a&amp;dn=Anh+Hung+Tran+-+M%C3%83%C2%B9i+du+du+xanh+-+L%5C%27odeur+de+la+papaye+verte+%281&amp;tr=udp%3A%2F%2Ftracker.openbittorrent.com%3A80&amp;tr=udp%3A%2F%2Fopen.demonii.com%3A1337&amp;tr=udp%3A%2F%2Ftracker.coppersurfer.tk%3A6969&amp;tr=udp%3A%2F%2Fexodus.desync.com%3A6969","seeders":0,"leechers":0,"uploader":"mfccorrea","files":3,"time":1283282518,"description":"The interior life of a Vietnamese household in the 1950s, as seen through the eyes of a young servant girl, is explored in Tran Anh Hung's placid, but visually intoxicating tone poem, L'Odeur de la Papaye Verte. The film begins in 1951, when the beautiful and inquisitive 10-year-old peasant girl Mui (Lu Man San) is hired to work at the home of an affluent Saigon family. When the father absconds with the family's money, the tireless mother (Truong Thi Loc) is forced to support the family through the slim profits of her tiny fabric store. As the family struggles to make ends meet, Mui becomes attracted to a friend of the family, Khuyen (Vuong Hoa Hoi). The film then shifts to 1961, when the family is in desperate straits. The father has died, and Mui (Tran Nu Yen-Khe), now twenty years old, finds herself working in Khuyen's home. Khuyun has grown into an attractive, sophisticated French-speaking pianist, with his own expensive mistress. Mui serves him as she has served the family -- with perfection and silence. She also loves Khuyen is silence, and gradually Khuyen begins to take notice of Mui's love for him. \n\n   General\n      Complete name : MÃƒÂ¹i du du xanh - L'odeur de la papaye verte.avi\n      Format : AVI\n      Format/Info : Audio Video Interleave\n      File size : 1.18 GiB\n      Duration : 1h 39mn\n      Overall bit rate : 1 689 Kbps\n      Writing application : VirtualDubMod 1.5.10.2 (build 2540/release)\n      Writing library : VirtualDubMod build 2540/release\n   Video #0\n      ID : 0\n      Format : MPEG-4 Visual\n      Format profile : AdvancedSimple@L5\n      Format settings, BVOP : Yes\n      Format settings, QPel : No\n      Format settings, GMC : No warppoints\n      Format settings, Matrix : Default (MPEG)\n      Codec ID : XVID\n      Codec ID/Hint : XviD\n      Duration : 1h 39mn\n      Bit rate : 1 488 Kbps\n      Width : 704 pixels\n      Height : 424 pixels\n      Display aspect ratio : 1.660\n      Frame rate : 25.000 fps\n      Resolution : 24 bits\n      Colorimetry : 4:2:0\n      Scan type : Progressive\n      Bits/(Pixel*Frame) : 0.199\n      Stream size : 1.04 GiB (88%)\n      Writing library : XviD 1.2.1 (UTC 2008-12-04)\n   Audio #1\n      ID : 1\n      Format : AC-3\n      Format/Info : Audio Coding 3\n      Codec ID : 2000\n      Duration : 1h 39mn\n      Bit rate mode : Constant\n      Bit rate : 192 Kbps\n      Channel(s) : 2 channels\n      Channel positions : L R\n      Sampling rate : 48.0 KHz\n      Stream size : 137 MiB (11%)\n      Alignment : Split accross interleaves\n      Interleave, duration : 40 ms (1.00 video frame)\n      Interleave, preload duration : 500 ms\n &lt;a href=&quot;\nhttp://www.imdb.com/title/tt0107617/&quot; rel=&quot;nofollow&quot; target=&quot;_NEW&quot;&gt;\nhttp://www.imdb.com/title/tt0107617/&lt;/a&gt;\n\nVietnamese audio, English and Portuguese subtitles\n\nOriginally posted at KG by charulata, whom we thank\n\nAnh Hung Tran - MÃƒÂ¹i du du xanh - L'odeur de la papaye verte (1993)","torrent":{"xt":"urn:btih:e97398f1c0c7576f22dd488cc1568e3baa2f3c4a","amp;dn":"Anh+Hung+Tran+-+M%C3%83%C2%B9i+du+du+xanh+-+L%5C%27odeur+de+la+papaye+verte+%281","amp;tr":["udp%3A%2F%2Ftracker.openbittorrent.com%3A80","udp%3A%2F%2Fopen.demonii.com%3A1337","udp%3A%2F%2Ftracker.coppersurfer.tk%3A6969","udp%3A%2F%2Fexodus.desync.com%3A6969"],"infoHash":"e97398f1c0c7576f22dd488cc1568e3baa2f3c4a","infoHashBuffer":{"type":"Buffer","data":[233,115,152,241,192,199,87,111,34,221,72,140,193,86,142,59,170,47,60,74]},"announce":[],"urlList":[]}}